# xmcd
#
# Track frame offsets:
#	150
#	16133
#	37233
#	53338
#	72044
#	92071
#	109779
#	129186
#	147963
#	163845
#	184945
#	200987
#	219697
#	239730
#	257373
#	276778
#
# Disc length: 3940 seconds
#
# Revision: 1
# Processed by: cddbd v1.5.2PL0 Copyright (c) Steve Scherf et al.
# Submitted via: audiograbber 1.83.01
#
DISCID=ec0f6210
DTITLE=SOUND CHOICE - SC8039 TEEN PAK
DYEAR=1900
DGENRE=karaoke
TTITLE0=SHANIA TWAIN  - YOU'RE STILL THE ONE 
TTITLE1=BRITNEY SPEARS  - SOMETIMES
TTITLE2=SIXPENCE NONE THE RICHER  - KISS ME 
TTITLE3=MANDY MOORE - CANDY
TTITLE4=CHER  - BELIEVE
TTITLE5=DIXIE CHICKS  - WIDE OPEN SPACES
TTITLE6=STRANGER MADONNA  - BEAUTIFUL
TTITLE7=SHANIA TWAIN  - MAN I FEEL LIKE A WOMAN
TTITLE8=SHANIA TWAIN - YOU'RE STILL THE ONE  -VOCAS
TTITLE9=BRITNEY SPEARS  - SOMETIMES -VOCALS
TTITLE10=SIXPENCE NONE THE RICHER  - KISS ME -VOCALS
TTITLE11=MANDY MOORE  - CANDY -VOCALS
TTITLE12=CHER  - BELIEVE -VOCALS
TTITLE13=DIXIE CHICKS  - WIDE OPEN SPACES -VOCALS
TTITLE14=MADONNA  - BEAUTIFUL STRANGER -VOCALS
TTITLE15=SHANIA TWAIN  -  MAN I FEEL LIKE A WOMAN -VOCALS
EXTD=
EXTT0=
EXTT1=
EXTT2=
EXTT3=
EXTT4=
EXTT5=
EXTT6=
EXTT7=
EXTT8=
EXTT9=
EXTT10=
EXTT11=
EXTT12=
EXTT13=
EXTT14=
EXTT15=
PLAYORDER=
